<mxfile host="app.diagrams.net" modified="2022-04-24T04:00:52.177Z" agent="5.0 (Windows NT 10.0; Win64; x64) AppleWebKit/537.36 (KHTML, like Gecko) Chrome/100.0.4896.127 Safari/537.36" etag="MIpOIoTsYZvrikn69N3i" version="17.4.6" type="github">
  <diagram id="a5Jc8LiYv5saHP_5g_Yr" name="Page-1">
    <mxGraphModel dx="700" dy="798" grid="1" gridSize="10" guides="1" tooltips="1" connect="1" arrows="1" fold="1" page="1" pageScale="1" pageWidth="850" pageHeight="1100" math="0" shadow="0">
      <root>
        <mxCell id="0" />
        <mxCell id="1" parent="0" />
        <mxCell id="KS_-xwdD40Dt28dAzY3L-1" value="" style="rounded=0;whiteSpace=wrap;html=1;" parent="1" vertex="1">
          <mxGeometry x="210" y="130" width="470" height="570" as="geometry" />
        </mxCell>
        <mxCell id="KS_-xwdD40Dt28dAzY3L-2" value="User Management System" style="text;strokeColor=none;fillColor=none;html=1;fontSize=24;fontStyle=1;verticalAlign=middle;align=center;" parent="1" vertex="1">
          <mxGeometry x="252.5" y="130" width="385" height="60" as="geometry" />
        </mxCell>
        <mxCell id="KS_-xwdD40Dt28dAzY3L-3" value="&lt;font style=&quot;font-size: 14px&quot;&gt;Create a new user account&lt;/font&gt;" style="ellipse;whiteSpace=wrap;html=1;" parent="1" vertex="1">
          <mxGeometry x="270" y="220" width="140" height="70" as="geometry" />
        </mxCell>
        <mxCell id="KS_-xwdD40Dt28dAzY3L-17" style="edgeStyle=orthogonalEdgeStyle;rounded=0;orthogonalLoop=1;jettySize=auto;html=1;entryX=0;entryY=0.5;entryDx=0;entryDy=0;fontSize=14;" parent="1" source="KS_-xwdD40Dt28dAzY3L-4" target="KS_-xwdD40Dt28dAzY3L-3" edge="1">
          <mxGeometry relative="1" as="geometry" />
        </mxCell>
        <mxCell id="KS_-xwdD40Dt28dAzY3L-18" style="edgeStyle=orthogonalEdgeStyle;rounded=0;orthogonalLoop=1;jettySize=auto;html=1;entryX=0;entryY=0.5;entryDx=0;entryDy=0;fontSize=14;" parent="1" source="KS_-xwdD40Dt28dAzY3L-4" target="KS_-xwdD40Dt28dAzY3L-9" edge="1">
          <mxGeometry relative="1" as="geometry" />
        </mxCell>
        <mxCell id="KS_-xwdD40Dt28dAzY3L-19" style="edgeStyle=orthogonalEdgeStyle;rounded=0;orthogonalLoop=1;jettySize=auto;html=1;entryX=0;entryY=0.5;entryDx=0;entryDy=0;fontSize=14;" parent="1" source="KS_-xwdD40Dt28dAzY3L-4" target="KS_-xwdD40Dt28dAzY3L-10" edge="1">
          <mxGeometry relative="1" as="geometry" />
        </mxCell>
        <mxCell id="KS_-xwdD40Dt28dAzY3L-4" value="User" style="shape=umlActor;html=1;verticalLabelPosition=bottom;verticalAlign=top;align=center;" parent="1" vertex="1">
          <mxGeometry x="140" y="365" width="30" height="60" as="geometry" />
        </mxCell>
        <mxCell id="KS_-xwdD40Dt28dAzY3L-9" value="&lt;span style=&quot;font-size: 14px&quot;&gt;Login to user account&lt;/span&gt;" style="ellipse;whiteSpace=wrap;html=1;" parent="1" vertex="1">
          <mxGeometry x="270" y="360" width="140" height="70" as="geometry" />
        </mxCell>
        <mxCell id="KS_-xwdD40Dt28dAzY3L-10" value="&lt;span style=&quot;font-size: 14px&quot;&gt;Password Reset&lt;/span&gt;" style="ellipse;whiteSpace=wrap;html=1;" parent="1" vertex="1">
          <mxGeometry x="270" y="480" width="140" height="70" as="geometry" />
        </mxCell>
        <mxCell id="KS_-xwdD40Dt28dAzY3L-20" value="&lt;font style=&quot;font-size: 14px&quot;&gt;User Authentication&lt;/font&gt;" style="ellipse;whiteSpace=wrap;html=1;" parent="1" vertex="1">
          <mxGeometry x="497.5" y="220" width="140" height="70" as="geometry" />
        </mxCell>
        <mxCell id="KS_-xwdD40Dt28dAzY3L-24" value="&amp;lt;&amp;lt;include&amp;gt;&amp;gt;" style="edgeStyle=none;html=1;endArrow=open;verticalAlign=bottom;dashed=1;labelBackgroundColor=none;rounded=0;fontSize=14;exitX=1;exitY=0.5;exitDx=0;exitDy=0;entryX=0;entryY=0.5;entryDx=0;entryDy=0;" parent="1" source="KS_-xwdD40Dt28dAzY3L-3" target="KS_-xwdD40Dt28dAzY3L-20" edge="1">
          <mxGeometry width="160" relative="1" as="geometry">
            <mxPoint x="420" y="280" as="sourcePoint" />
            <mxPoint x="580" y="280" as="targetPoint" />
          </mxGeometry>
        </mxCell>
        <mxCell id="KS_-xwdD40Dt28dAzY3L-25" value="&lt;font style=&quot;font-size: 14px&quot;&gt;User Verification&lt;/font&gt;" style="ellipse;whiteSpace=wrap;html=1;" parent="1" vertex="1">
          <mxGeometry x="480" y="360" width="140" height="70" as="geometry" />
        </mxCell>
        <mxCell id="KS_-xwdD40Dt28dAzY3L-28" value="&amp;lt;&amp;lt;include&amp;gt;&amp;gt;" style="edgeStyle=none;html=1;endArrow=open;verticalAlign=bottom;dashed=1;labelBackgroundColor=none;rounded=0;fontSize=14;exitX=1;exitY=0.5;exitDx=0;exitDy=0;entryX=0;entryY=0.5;entryDx=0;entryDy=0;" parent="1" source="KS_-xwdD40Dt28dAzY3L-9" target="KS_-xwdD40Dt28dAzY3L-25" edge="1">
          <mxGeometry width="160" relative="1" as="geometry">
            <mxPoint x="390" y="310" as="sourcePoint" />
            <mxPoint x="550" y="310" as="targetPoint" />
          </mxGeometry>
        </mxCell>
        <mxCell id="KS_-xwdD40Dt28dAzY3L-29" value="Email" style="ellipse;whiteSpace=wrap;html=1;fontSize=14;" parent="1" vertex="1">
          <mxGeometry x="517.5" y="550" width="120" height="80" as="geometry" />
        </mxCell>
        <mxCell id="KS_-xwdD40Dt28dAzY3L-31" value="&amp;lt;&amp;lt;include&amp;gt;&amp;gt;" style="edgeStyle=none;html=1;endArrow=open;verticalAlign=bottom;dashed=1;labelBackgroundColor=none;rounded=0;fontSize=14;exitX=1;exitY=0.5;exitDx=0;exitDy=0;entryX=0;entryY=0.5;entryDx=0;entryDy=0;" parent="1" source="KS_-xwdD40Dt28dAzY3L-10" target="KS_-xwdD40Dt28dAzY3L-29" edge="1">
          <mxGeometry width="160" relative="1" as="geometry">
            <mxPoint x="440" y="490" as="sourcePoint" />
            <mxPoint x="600" y="490" as="targetPoint" />
          </mxGeometry>
        </mxCell>
        <mxCell id="KS_-xwdD40Dt28dAzY3L-32" value="Dashboard Edit" style="ellipse;whiteSpace=wrap;html=1;fontSize=14;" parent="1" vertex="1">
          <mxGeometry x="498" y="450" width="140" height="70" as="geometry" />
        </mxCell>
        <mxCell id="KS_-xwdD40Dt28dAzY3L-33" value="&amp;lt;&amp;lt;extend&amp;gt;&amp;gt;" style="edgeStyle=none;html=1;startArrow=open;endArrow=none;startSize=12;verticalAlign=bottom;dashed=1;labelBackgroundColor=none;rounded=0;fontSize=14;entryX=0;entryY=0.5;entryDx=0;entryDy=0;exitX=0.5;exitY=1;exitDx=0;exitDy=0;" parent="1" source="KS_-xwdD40Dt28dAzY3L-9" target="KS_-xwdD40Dt28dAzY3L-32" edge="1">
          <mxGeometry width="160" relative="1" as="geometry">
            <mxPoint x="370" y="460" as="sourcePoint" />
            <mxPoint x="530" y="460" as="targetPoint" />
          </mxGeometry>
        </mxCell>
      </root>
    </mxGraphModel>
  </diagram>
</mxfile>
